<?xml version="1.0" encoding="utf-8"?>
<!-- Generator: Adobe Illustrator 25.4.1, SVG Export Plug-In . SVG Version: 6.00 Build 0)  -->
<svg version="1.1" id="Layer_1" xmlns="http://www.w3.org/2000/svg" xmlns:xlink="http://www.w3.org/1999/xlink" x="0px" y="0px"
	 viewBox="0 0 800 800" style="enable-background:new 0 0 800 800;" xml:space="preserve">
<style type="text/css">
	.st0{fill:#D4AF37;}
</style>
<path class="st0" d="M381.2,180.9c4,0,6-2.3,7-6c10.4-55.9,9.7-57.3,68-68.3c4-0.7,6.4-3,6.4-7c0-4-2.3-6.4-6.4-7
	c-57.9-11.7-56.2-13.1-68-68.3c-1-3.7-3-6-7-6c-4,0-6,2.3-7,6c-11.7,55.2-9.7,56.6-68,68.3c-3.7,0.7-6.4,3-6.4,7c0,4,2.7,6.4,6.4,7
	c58.3,11.7,57.6,12.4,68,68.3C375.2,178.5,377.2,180.9,381.2,180.9z M219.2,411.2c6.4,0,10.7-4,11.4-10
	c12.1-89.4,15.1-89.4,107.5-107.1c6-1,10.4-5,10.4-11.4c0-6-4.4-10.4-10.4-11.4c-92.4-12.7-95.8-15.7-107.5-106.8
	c-0.7-6-5-10.4-11.4-10.4c-6,0-10.4,4.4-11,10.7c-11,89.7-15.7,89.4-107.5,106.5c-6,1.3-10.4,5.4-10.4,11.4
	c0,6.7,4.4,10.4,11.7,11.4c91.1,14.7,95.1,17.1,106.1,106.5C208.8,407.2,213.2,411.2,219.2,411.2z M446.2,781.9
	c8.7,0,15.1-6.4,16.7-15.4c23.8-183.5,49.6-211.3,231-231.4c9.4-1,15.7-8,15.7-16.7c0-8.7-6.4-15.4-15.7-16.7
	c-181.5-20.1-207.3-47.9-231-231.4c-1.7-9-8-15.1-16.7-15.1c-8.7,0-15.1,6-16.4,15.1c-23.8,183.5-49.9,211.3-231,231.4
	c-9.7,1.3-16.1,8-16.1,16.7c0,8.7,6.4,15.7,16.1,16.7c180.8,23.8,205.9,48.2,231,231.4C431.1,775.5,437.5,781.9,446.2,781.9z"/>
</svg>
