<svg id="Layer_1" data-name="Layer 1" xmlns="http://www.w3.org/2000/svg" viewBox="0 0 619.42 763.73"><defs><style>.cls-1{fill:#fff;}</style></defs><path class="cls-1" d="M381.25,180.86c4,0,6-2.34,7-6,10.38-55.91,9.71-57.25,68-68.3,4-.67,6.36-3,6.36-7s-2.34-6.36-6.36-7c-57.92-11.72-56.25-13.06-68-68.31-1-3.68-3-6-7-6s-6,2.34-7,6c-11.72,55.25-9.71,56.59-68,68.31-3.68.67-6.36,3-6.36,7s2.68,6.36,6.36,7c58.26,11.72,57.59,12.39,68,68.3C375.22,178.52,377.23,180.86,381.25,180.86Zm-162,230.36c6.36,0,10.71-4,11.38-10.05,12-89.4,15.07-89.4,107.48-107.14,6-1,10.38-5,10.38-11.38,0-6-4.35-10.38-10.38-11.39-92.41-12.72-95.76-15.74-107.48-106.81-.67-6-5-10.38-11.38-10.38-6,0-10.38,4.36-11,10.72-11.05,89.73-15.74,89.4-107.48,106.47-6,1.34-10.38,5.36-10.38,11.39,0,6.69,4.35,10.37,11.72,11.38,91.07,14.73,95.09,17.08,106.14,106.47C208.82,407.2,213.17,411.22,219.2,411.22Zm227,370.64c8.7,0,15.06-6.36,16.74-15.4C486.72,583,512.5,555.19,694,535.1c9.38-1,15.74-8,15.74-16.74S703.35,503,694,501.62C512.5,481.53,486.72,453.74,463,270.26c-1.68-9-8-15.07-16.74-15.07s-15.07,6-16.41,15.07c-23.77,183.48-49.89,211.27-231,231.36-9.71,1.34-16.07,8-16.07,16.74s6.36,15.74,16.07,16.74c180.81,23.77,205.92,48.22,231,231.36C431.14,775.5,437.5,781.86,446.21,781.86Z" transform="translate(-90.29 -18.14)"/></svg>